<?xml version="1.0" standalone="no"?>
<!DOCTYPE svg PUBLIC "-//W3C//DTD SVG 20010904//EN"
 "http://www.w3.org/TR/2001/REC-SVG-20010904/DTD/svg10.dtd">
<svg version="1.0" xmlns="http://www.w3.org/2000/svg"
 width="500.000000pt" height="500.000000pt" viewBox="0 0 500.000000 500.000000"
 preserveAspectRatio="xMidYMid meet">
<metadata>
Created by potrace 1.14, written by Peter Selinger 2001-2017
</metadata>
<g transform="translate(0.000000,500.000000) scale(0.100000,-0.100000)"
fill="#000000" stroke="none">
<path d="M1682 4903 c-5 -10 -9 -45 -9 -78 0 -33 -3 -118 -7 -190 -3 -71 -9
-240 -12 -375 -8 -378 -11 -421 -26 -437 -7 -7 -45 -44 -83 -81 -65 -61 -165
-171 -197 -215 -14 -19 -77 -32 -204 -42 -42 -4 -84 -8 -93 -10 -10 -2 -74 -6
-142 -10 -277 -15 -396 -25 -423 -34 -11 -5 -51 -9 -89 -10 -94 -3 -177 -17
-177 -30 0 -9 243 -247 440 -431 80 -74 193 -183 252 -241 l107 -105 0 -135 1
-134 -56 -65 c-31 -36 -74 -85 -96 -110 -21 -25 -47 -54 -56 -65 -45 -51 -262
-306 -306 -360 -28 -33 -57 -67 -65 -76 -54 -55 -100 -108 -115 -131 -18 -28
-18 -28 5 -29 13 0 33 -3 44 -6 18 -4 286 -9 768 -14 86 -1 180 -4 207 -7 52
-5 53 -5 178 -135 52 -55 256 -206 345 -256 78 -43 85 -50 92 -83 4 -18 27
-100 52 -183 77 -258 124 -416 153 -521 32 -111 49 -154 61 -154 27 0 62 32
116 108 53 73 171 230 200 267 5 6 53 75 108 154 55 79 116 161 135 182 33 35
40 38 110 44 64 5 78 4 95 -12 43 -38 193 -162 260 -214 38 -30 77 -59 85 -66
112 -90 157 -123 167 -123 20 0 55 59 58 99 2 22 6 57 9 78 4 21 8 76 10 123
4 86 19 203 36 275 5 22 12 61 15 87 7 51 11 57 71 103 88 67 267 268 336 377
9 15 28 34 41 43 26 17 144 42 282 60 28 4 66 11 85 15 19 5 62 11 95 15 72 7
110 13 150 26 77 23 25 108 -169 274 -26 22 -76 79 -110 126 -35 47 -70 94
-80 105 -14 16 -17 51 -20 234 -2 123 -9 241 -16 275 l-13 60 41 62 c23 34
105 145 182 248 77 103 140 196 140 205 0 10 3 25 6 33 6 18 -16 22 -186 37
-69 6 -141 13 -160 15 -19 2 -66 7 -105 10 -158 13 -201 31 -260 104 -25 31
-57 68 -71 83 -29 28 -29 31 -9 188 13 103 24 226 40 474 7 103 -6 186 -29
186 -6 0 -70 -34 -141 -76 -72 -42 -145 -85 -163 -96 -18 -10 -45 -27 -60 -37
-44 -30 -202 -125 -276 -166 -61 -33 -71 -36 -95 -25 -90 41 -130 48 -361 65
-46 4 -91 10 -100 14 -14 7 -63 6 -130 -1 -15 -2 -24 2 -23 9 3 14 -80 99
-261 268 -70 66 -171 161 -224 211 -130 122 -243 218 -267 228 -43 18 -84 17
-93 -1z"/>
</g>
</svg>
